# File created by Blade
# Date/Time:  Thu Sep 25 19:26:26 2014
# Frame Rate: 120.000 fps
#------------------------------------------------------
:FULLY-SPECIFIED
:DEGREES
1045
root 1.108331 31.551451 -13.231637 109.704490 31.298436 8.700609
Spine 42.590297 -0.860361 -3.477130
Head 18.599875 -17.821477 -32.408355
LeftShoulder 10.473414 -49.143920 35.258195
LeftArm 37.541548 -17.655515 -38.607267
LeftForeArm 16.075359 0.000000 37.381300
LeftHand -40.419459 -0.000000 82.661863
LeftHandThumb1 -26.253704 0.000000 33.147579
RightShoulder -10.544625 60.351478 -63.840098
RightArm 45.729281 4.569571 40.677281
RightForeArm -57.022435 0.000000 49.536947
RightHand -15.623376 -0.000000 -20.156867
RightHandThumb1 -24.326973 -0.000000 -32.862282
LeftUpLeg -119.250204 1.638851 2.756246
LeftLeg -0.230828 -0.000000 0.000000
LeftFoot 10.115563 -6.932949 -25.677713
LeftToeBase 6.563036 -0.000000 -0.000000
RightUpLeg -110.320653 -19.708608 35.582744
RightLeg 0.811537 -0.000000 -0.000000
RightFoot 1.172542 -21.076648 16.689732
RightToeBase 5.896235 -0.000000 -0.000000
1046
root 1.108486 31.551964 -13.230597 109.762569 31.302270 8.703139
Spine 42.645586 -0.754501 -3.404986
Head 18.486506 -17.946972 -32.310813
LeftShoulder 10.532839 -49.243653 35.168327
LeftArm 37.597478 -17.756371 -38.650586
LeftForeArm 16.152984 -0.000000 37.576857
LeftHand -40.423176 -0.000000 82.753249
LeftHandThumb1 -26.253704 0.000000 33.147579
RightShoulder -10.598736 60.220798 -63.830644
RightArm 45.657155 4.786001 40.723140
RightForeArm -57.233010 -0.000000 49.870655
RightHand -15.710670 -0.000000 -19.946243
RightHandThumb1 -24.326973 -0.000000 -32.862282
LeftUpLeg -119.288600 1.644324 2.751972
LeftLeg -0.259432 -0.000000 0.000000
LeftFoot 10.117713 -6.957502 -25.778410
LeftToeBase 6.663235 -0.000000 -0.000000
RightUpLeg -110.367916 -19.683968 35.579155
RightLeg 0.825931 -0.000000 -0.000000
RightFoot 1.158271 -21.108164 16.723007
RightToeBase 5.864301 -0.000000 -0.000000
1047
root 1.107714 31.551622 -13.229514 109.783449 31.314108 8.704137
Spine 42.732499 -0.661194 -3.347254
Head 18.462250 -17.939821 -32.108157
LeftShoulder 10.570522 -49.333877 35.139431
LeftArm 37.614422 -17.869712 -38.710433
LeftForeArm 16.272097 -0.000000 37.749731
LeftHand -40.400349 -0.000000 82.810420
LeftHandThumb1 -26.253704 0.000000 33.147579
RightShoulder -10.615044 60.201527 -63.835756
RightArm 45.489440 4.967020 40.781066
RightForeArm -57.444032 0.000000 50.198919
RightHand -15.855912 0.000000 -19.870029
RightHandThumb1 -24.326973 -0.000000 -32.862282
LeftUpLeg -119.293883 1.650376 2.749523
LeftLeg -0.293525 -0.000000 0.000000
LeftFoot 10.147261 -6.953580 -25.760833
LeftToeBase 6.684353 -0.000000 -0.000000
RightUpLeg -110.374977 -19.679173 35.570019
RightLeg 0.836346 -0.000000 -0.000000
RightFoot 1.137197 -21.110058 16.712944
RightToeBase 5.910673 -0.000000 -0.000000
1048
root 1.107362 31.552316 -13.226813 109.812314 31.326971 8.716085
Spine 42.823469 -0.707290 -3.372147
Head 18.297864 -17.891035 -32.030075
LeftShoulder 10.441351 -49.387305 35.169134
LeftArm 37.639387 -17.921642 -38.711524
LeftForeArm 16.387772 -0.000000 37.857791
LeftHand -40.378364 -0.000000 82.906050
LeftHandThumb1 -26.253704 0.000000 33.147579
RightShoulder -10.536251 60.351346 -63.811012
RightArm 45.295002 5.136346 40.892713
RightForeArm -57.691177 -0.000000 50.511314
RightHand -15.885955 0.000000 -19.646829
RightHandThumb1 -24.326973 -0.000000 -32.862282
LeftUpLeg -119.291210 1.664115 2.777571
LeftLeg -0.331562 -0.000000 0.000000
LeftFoot 10.107610 -6.912532 -25.645039
LeftToeBase 6.319935 -0.000000 -0.000000
RightUpLeg -110.387995 -19.670426 35.590826
RightLeg 0.830340 -0.000000 -0.000000
RightFoot 1.127779 -21.099788 16.745996
RightToeBase 5.878519 -0.000000 -0.000000
1049
root 1.107302 31.552624 -13.224784 109.868669 31.330268 8.723089
Spine 42.853790 -0.705699 -3.370280
Head 18.228104 -17.905454 -32.016612
LeftShoulder 10.392601 -49.441703 35.177355
LeftArm 37.636216 -17.998866 -38.766478
LeftForeArm 16.479866 -0.000000 38.012891
LeftHand -40.354902 0.000000 83.004709
LeftHandThumb1 -26.253704 0.000000 33.147579
RightShoulder -10.467593 60.384020 -63.747022
RightArm 45.200702 5.295954 40.976504
RightForeArm -57.921116 -0.000000 50.785803
RightHand -16.013759 -0.000000 -19.462169
RightHandThumb1 -24.326973 -0.000000 -32.862282
LeftUpLeg -119.315355 1.667467 2.776527
LeftLeg -0.385875 -0.000000 0.000000
LeftFoot 10.213574 -6.919814 -25.989581
LeftToeBase 6.771560 -0.000000 -0.000000
RightUpLeg -110.414138 -19.652515 35.592026
RightLeg 0.809148 -0.000000 -0.000000
RightFoot 1.137589 -21.113883 16.842538
RightToeBase 5.730694 -0.000000 -0.000000
1050
root 1.106719 31.553267 -13.223009 109.924758 31.344825 8.730059
Spine 42.887794 -0.687967 -3.341822
Head 18.158590 -17.906357 -31.976159
LeftShoulder 10.365208 -49.571172 35.192200
LeftArm 37.611580 -18.062463 -38.871146
LeftForeArm 16.604123 0.000000 38.103865
LeftHand -40.070756 -0.000000 83.477403
LeftHandThumb1 -26.253704 0.000000 33.147579
RightShoulder -10.480047 60.409631 -63.744758
RightArm 45.133034 5.424625 41.085028
RightForeArm -58.116294 -0.000000 51.001198
RightHand -16.062466 0.000000 -19.357391
RightHandThumb1 -24.326973 -0.000000 -32.862282
LeftUpLeg -119.349495 1.677991 2.797472
LeftLeg -0.408933 -0.000000 0.000000
LeftFoot 10.160987 -6.879110 -26.026064
LeftToeBase 6.785480 -0.000000 -0.000000
RightUpLeg -110.452379 -19.621760 35.623195
RightLeg 0.805904 -0.000000 -0.000000
RightFoot 1.125208 -21.117348 16.865956
RightToeBase 5.711097 -0.000000 -0.000000
1051
root 1.106765 31.553297 -13.222213 109.978915 31.350678 8.737176
Spine 42.912778 -0.669240 -3.311408
Head 18.134171 -17.908354 -31.986842
LeftShoulder 10.349391 -49.707328 35.207501
LeftArm 37.526012 -18.089698 -38.937086
LeftForeArm 16.671114 -0.000000 38.258612
LeftHand -40.026801 0.000000 83.665724
LeftHandThumb1 -26.253704 0.000000 33.147579
RightShoulder -10.459837 60.440867 -63.706531
RightArm 45.068204 5.535155 41.139431
RightForeArm -58.329055 0.000000 51.226669
RightHand -16.144756 -0.000000 -19.126360
RightHandThumb1 -24.326973 -0.000000 -32.862282
LeftUpLeg -119.378730 1.693871 2.832898
LeftLeg -0.443967 -0.000000 0.000000
LeftFoot 10.146819 -6.852530 -25.815537
LeftToeBase 6.566600 -0.000000 -0.000000
RightUpLeg -110.488847 -19.597315 35.636189
RightLeg 0.801819 -0.000000 -0.000000
RightFoot 1.100854 -21.133549 16.759448
RightToeBase 5.913452 -0.000000 -0.000000
1052
root 1.106387 31.553772 -13.221510 110.021112 31.358246 8.730424
Spine 42.937132 -0.637343 -3.287987
Head 18.131906 -17.851941 -31.937544
LeftShoulder 10.335458 -49.791827 35.229258
LeftArm 37.485641 -18.156827 -39.002724
LeftForeArm 16.799896 -0.000000 38.381181
LeftHand -40.063017 -0.000000 83.770295
LeftHandThumb1 -26.253704 0.000000 33.147579
RightShoulder -10.486354 60.505908 -63.739888
RightArm 44.955320 5.625112 41.245404
RightForeArm -58.553009 0.000000 51.440243
RightHand -16.187295 -0.000000 -18.937478
RightHandThumb1 -24.326973 -0.000000 -32.862282
LeftUpLeg -119.413811 1.707433 2.836018
LeftLeg -0.466723 -0.000000 0.000000
LeftFoot 10.126366 -6.813489 -25.948928
LeftToeBase 6.666618 -0.000000 -0.000000
RightUpLeg -110.507119 -19.571500 35.622833
RightLeg 0.791727 -0.000000 -0.000000
RightFoot 1.106336 -21.167049 16.759305
RightToeBase 5.903026 -0.000000 -0.000000
1053
root 1.106862 31.553838 -13.221064 110.053774 31.357916 8.732187
Spine 42.973859 -0.623637 -3.267569
Head 18.091160 -17.827681 -31.920352
LeftShoulder 10.327137 -49.834421 35.204593
LeftArm 37.512423 -18.229038 -39.031496
LeftForeArm 16.879251 0.000000 38.453748
LeftHand -40.070375 -0.000000 83.899364
LeftHandThumb1 -26.253704 0.000000 33.147579
RightShoulder -10.489907 60.589122 -63.766126
RightArm 44.828431 5.706374 41.341794
RightForeArm -58.764546 -0.000000 51.659166
RightHand -16.251590 -0.000000 -18.712249
RightHandThumb1 -24.326973 -0.000000 -32.862282
LeftUpLeg -119.434887 1.719844 2.854815
LeftLeg -0.474449 -0.000000 0.000000
LeftFoot 10.086274 -6.805287 -25.985905
LeftToeBase 6.717746 -0.000000 -0.000000
RightUpLeg -110.527427 -19.562675 35.613057
RightLeg 0.789894 -0.000000 -0.000000
RightFoot 1.104083 -21.179524 16.773534
RightToeBase 5.864513 -0.000000 -0.000000
1054
root 1.105028 31.553553 -13.221092 110.086886 31.380017 8.725396
Spine 43.008639 -0.617399 -3.228556
Head 17.939567 -17.799899 -31.987859
LeftShoulder 10.198886 -49.873251 35.263543
LeftArm 37.542366 -18.262968 -39.089815
LeftForeArm 16.921370 -0.000000 38.547190
LeftHand -40.057831 -0.000000 83.908111
LeftHandThumb1 -26.253704 0.000000 33.147579
RightShoulder -10.569390 60.664319 -63.883976
RightArm 44.716880 5.779926 41.466419
RightForeArm -58.951720 -0.000000 51.863914
RightHand -16.274814 0.000000 -18.402942
RightHandThumb1 -24.326973 -0.000000 -32.862282
LeftUpLeg -119.477414 1.742471 2.874703
LeftLeg -0.462928 -0.000000 0.000000
LeftFoot 10.095307 -6.786572 -26.122436
LeftToeBase 6.771220 -0.000000 -0.000000
RightUpLeg -110.532938 -19.546007 35.600561
RightLeg 0.784663 -0.000000 -0.000000
RightFoot 1.088979 -21.186118 16.884070
RightToeBase 5.762116 -0.000000 -0.000000
